<?xml version="1.0" encoding="UTF-8" standalone="no"?>
<!-- Created with Inkscape (http://www.inkscape.org/) -->

<svg
   xmlns:dc="http://purl.org/dc/elements/1.1/"
   xmlns:cc="http://creativecommons.org/ns#"
   xmlns:rdf="http://www.w3.org/1999/02/22-rdf-syntax-ns#"
   xmlns:svg="http://www.w3.org/2000/svg"
   xmlns="http://www.w3.org/2000/svg"
   xmlns:sodipodi="http://sodipodi.sourceforge.net/DTD/sodipodi-0.dtd"
   xmlns:inkscape="http://www.inkscape.org/namespaces/inkscape"
   width="86.819038mm"
   height="82.081932mm"
   viewBox="0 0 307.62651 290.84149"
   id="svg4266"
   version="1.1"
   inkscape:version="0.91 r13725"
   sodipodi:docname="penguin.svg">
  <defs
     id="defs4268" />
  <sodipodi:namedview
     id="base"
     pagecolor="#ffffff"
     bordercolor="#666666"
     borderopacity="1.0"
     inkscape:pageopacity="0.0"
     inkscape:pageshadow="2"
     inkscape:zoom="0.35"
     inkscape:cx="-188.3296"
     inkscape:cy="5.4207501"
     inkscape:document-units="px"
     inkscape:current-layer="layer1"
     showgrid="false"
     fit-margin-top="0"
     fit-margin-left="0"
     fit-margin-right="0"
     fit-margin-bottom="0"
     inkscape:window-width="1440"
     inkscape:window-height="802"
     inkscape:window-x="0"
     inkscape:window-y="1"
     inkscape:window-maximized="1" />
  <metadata
     id="metadata4271">
    <rdf:RDF>
      <cc:Work
         rdf:about="">
        <dc:format>image/svg+xml</dc:format>
        <dc:type
           rdf:resource="http://purl.org/dc/dcmitype/StillImage" />
        <dc:title></dc:title>
      </cc:Work>
    </rdf:RDF>
  </metadata>
  <g
     inkscape:label="Layer 1"
     inkscape:groupmode="layer"
     id="layer1"
     transform="translate(-23.329602,-246.94145)">
    <g
       id="g4847">
      <path
         sodipodi:nodetypes="ccssscssscsssscc"
         inkscape:connector-curvature="0"
         id="path4214"
         d="m 133.20954,483.30894 -20.20305,11.61675 c 0,0 -10.82114,11.75711 -11.61676,19.1929 -0.60609,5.66456 0.65348,13.26046 5.55584,16.16244 4.26346,2.52377 10.85143,0.65873 14.64721,-2.52538 6.85448,-5.74991 9.09138,-25.25381 9.09138,-25.25381 0,0 2.82048,19.6126 10.10152,24.74873 3.02976,2.13722 8.17612,2.76996 11.11168,0.50508 3.81704,-2.94497 3.74138,-9.37378 3.03046,-14.14213 -0.51121,-3.42882 -5.05076,-9.09138 -5.05076,-9.09138 0,0 11.18427,13.75067 19.19289,16.16244 4.21921,1.2706 10.43236,1.96732 13.13199,-1.51523 3.01959,-3.89531 0.83028,-10.62657 -2.02031,-14.64721 -4.0501,-5.71253 -12.36847,-6.57948 -18.68782,-9.59645 -8.63877,-4.1243 -26.26397,-11.61675 -26.26397,-11.61675 z"
         style="fill:#ff6600;fill-rule:evenodd;stroke:#000000;stroke-width:5;stroke-linecap:butt;stroke-linejoin:miter;stroke-miterlimit:4;stroke-dasharray:none;stroke-opacity:1" />
      <path
         sodipodi:nodetypes="cssscssscsssccc"
         inkscape:connector-curvature="0"
         id="path4216"
         d="m 225.6385,493.41046 c 0,0 -5.93113,21.20536 -1.51523,30.30458 2.79422,5.75764 9.73679,13.54167 15.65737,11.11168 5.37735,-2.20703 2.79882,-11.36456 3.03045,-17.17259 0.28305,-7.09742 -2.0203,-21.21321 -2.0203,-21.21321 0,0 5.16278,14.50738 9.59644,20.70813 2.70842,3.7879 6.46488,9.89788 11.11169,9.59645 5.219,-0.33854 6.95794,-5.88292 7.07106,-11.11167 0.13552,-6.26411 -8.08122,-18.18276 -8.08122,-18.18276 0,0 8.50003,15.58133 16.16244,16.66752 2.68783,0.38102 5.58729,-1.76728 7.07107,-4.04061 1.75804,-2.69353 2.16969,-6.59624 1.01015,-9.59645 -3.00905,-7.78568 -18.68782,-16.66751 -18.68782,-16.66751 l -24.24366,-4.54569 z"
         style="fill:#ff6600;fill-opacity:1;fill-rule:evenodd;stroke:#000000;stroke-width:5;stroke-linecap:butt;stroke-linejoin:miter;stroke-miterlimit:4;stroke-dasharray:none;stroke-opacity:1" />
      <path
         sodipodi:nodetypes="ascsscssssscsssaa"
         inkscape:connector-curvature="0"
         id="path4186"
         d="m 137.23273,253.74266 c -29.45865,11.2797 -51.158353,24.9221 -68.974983,64.79079 -5.30292,11.86647 -9.24982,38.06635 -9.24982,38.06635 0,0 -30.02951,17.62842 -32.85714,32.85714 -1.71236,9.22224 4.03943,19.93653 11.42857,25.71429 6.4757,5.06351 24.28572,4.28571 24.28572,4.28571 0,0 13.67058,57.88601 35.71428,74.28572 7.349013,5.46739 17.997563,3.77218 27.142863,4.28571 21.41598,1.20255 42.85681,-3.80208 64.28571,-2.85714 21.59722,0.95237 43.45704,14.36049 64.28572,8.57143 14.68874,-4.08255 29.31281,-14.73498 35.71428,-28.57143 6.80119,-14.70041 -1.42857,-48.57143 -1.42857,-48.57143 0,0 48.04117,-9.77405 40,-22.85714 -19.40425,-31.57099 -36.48745,-23.4243 -45.71428,-37.14286 -16.52196,-24.56506 -19.0222,-57.76838 -38.57143,-80 -17.52568,-19.93041 -29.11881,-25.82057 -47.14286,-31.51523 -18.73175,-5.91826 -40.57248,-8.36642 -58.91806,-1.34191 z"
         style="opacity:1;fill:#000000;fill-rule:evenodd;stroke:#000000;stroke-width:5;stroke-linecap:butt;stroke-linejoin:miter;stroke-miterlimit:4;stroke-dasharray:0.5, 0.5;stroke-dashoffset:0;stroke-opacity:1" />
      <path
         sodipodi:nodetypes="sssasassscacs"
         inkscape:connector-curvature="0"
         id="path4188"
         d="m 113.54746,493.16537 c -25.55434,-3.0819 -38.954494,-58.3691 -38.92677,-92.18386 0.03109,-37.92258 8.72901,-88.16529 42.42641,-105.56094 15.3849,-7.94217 36.02179,2.63848 50.50763,12.12183 7.94446,5.20095 12.63655,22.43875 17.17259,22.72843 8.82652,0.56368 23.35776,-17.10716 35.86042,-14.14214 14.50204,3.43918 23.01277,20.06562 29.7995,33.33504 9.65406,18.87562 9.75037,41.28251 13.63706,62.12438 2.84169,15.23819 7.67887,30.47296 7.07107,45.96194 -0.34587,8.81399 -6.06091,25.75889 -6.06091,25.75889 0,0 -6.49299,12.79308 -12.62691,15.17767 -20.11252,7.81883 -38.19096,-6.7409 -64.1447,-8.73423 0,0 -46.88032,6.76995 -74.71539,3.41299 z"
         style="opacity:1;fill:#ffffff;fill-rule:evenodd;stroke:#000000;stroke-width:1px;stroke-linecap:butt;stroke-linejoin:miter;stroke-opacity:1" />
      <path
         inkscape:connector-curvature="0"
         id="path4206"
         d="m 163.30075,400.48901 a 50.439381,49.42923 0 0 1 -23.90625,9.14063 c 10.9959,15.75054 21.73714,33.80101 44.82813,42.36523 17.5012,-9.92737 22.86243,-20.96406 26,-31.66602 a 49.29855,45.763016 0 0 1 -6.05079,0.4043 49.29855,45.763016 0 0 1 -40.87109,-20.24414 z"
         style="fill:#ff6600;fill-rule:evenodd;stroke:#000000;stroke-width:5;stroke-linecap:butt;stroke-linejoin:miter;stroke-miterlimit:4;stroke-dasharray:none;stroke-opacity:1" />
      <ellipse
         style="opacity:1;fill:#ffffff;fill-rule:evenodd;stroke:#000000;stroke-width:4.75628185;stroke-linecap:butt;stroke-linejoin:miter;stroke-miterlimit:4;stroke-dasharray:none;stroke-opacity:1"
         id="ellipse4198"
         cx="204.17274"
         cy="376.99039"
         rx="49.29855"
         ry="45.763016" />
      <ellipse
         ry="49.42923"
         rx="50.439381"
         cy="362.59573"
         cx="133.71461"
         id="path4196"
         style="opacity:1;fill:#ffffff;fill-rule:evenodd;stroke:#000000;stroke-width:5;stroke-linecap:butt;stroke-linejoin:miter;stroke-miterlimit:4;stroke-dasharray:none;stroke-opacity:1" />
      <circle
         r="8.8388348"
         cy="384.5665"
         cx="229.93166"
         id="path4200"
         style="fill:#000000;fill-rule:evenodd;stroke:#000000;stroke-width:1px;stroke-linecap:butt;stroke-linejoin:miter;stroke-opacity:1" />
      <circle
         style="fill:#000000;fill-rule:evenodd;stroke:#000000;stroke-width:1px;stroke-linecap:butt;stroke-linejoin:miter;stroke-opacity:1"
         id="circle4202"
         cx="153.16006"
         cy="375.47513"
         r="8.8388348" />
    </g>
  </g>
</svg>
